<svg width="24" height="24" viewBox="0 0 24 24" fill="none" xmlns="http://www.w3.org/2000/svg">
<path d="M19.8088 18.4034L20.4194 19.0175L19.0052 20.4317L15.1976 16.6023C14.0281 17.48 12.5748 18 11 18C7.13401 18 4 14.866 4 11C4 7.13401 7.13401 4 11 4C14.866 4 18 7.13401 18 11C18 12.5651 17.4864 14.0102 16.6185 15.1759L19.7115 18.2903C19.7472 18.326 19.7796 18.3638 19.8088 18.4034ZM11 16C13.7614 16 16 13.7614 16 11C16 8.23858 13.7614 6 11 6C8.23858 6 6 8.23858 6 11C6 13.7614 8.23858 16 11 16Z" fill="black"/>
</svg>
