<svg width="17" height="17" viewBox="0 0 17 17" fill="none" xmlns="http://www.w3.org/2000/svg">
<path d="M15.8088 14.4034L16.4194 15.0175L15.0052 16.4317L11.1976 12.6023C10.0281 13.48 8.57479 14 7 14C3.13401 14 0 10.866 0 7C0 3.13401 3.13401 0 7 0C10.866 0 14 3.13401 14 7C14 8.56506 13.4864 10.0102 12.6185 11.1759L15.7115 14.2903C15.7472 14.326 15.7796 14.3638 15.8088 14.4034ZM7 12C9.76142 12 12 9.76142 12 7C12 4.23858 9.76142 2 7 2C4.23858 2 2 4.23858 2 7C2 9.76142 4.23858 12 7 12Z" fill="white"/>
</svg>
