<svg width="24" height="24" fill="none" xmlns="http://www.w3.org/2000/svg"><path fill-rule="evenodd" clip-rule="evenodd" d="M18.145 11.844l-.698 4.185-.002.014a1 1 0 01-1.163.805L4.913 14.781a1 1 0 01-.783-.709L2.306 7.685a1 1 0 01.961-1.275h13.726l.613-2.627a1.18 1.18 0 011.15-.912h2.064a1.18 1.18 0 110 2.36h-1.128l-1.547 6.613z" fill="#000"/><path opacity=".2" fill-rule="evenodd" clip-rule="evenodd" d="M6.5 21a1.5 1.5 0 110-3 1.5 1.5 0 010 3zm9 0a1.5 1.5 0 110-3 1.5 1.5 0 010 3z" fill="#000"/></svg>